<svg id="Layer_1" data-name="Layer 1" xmlns="http://www.w3.org/2000/svg" viewBox="0 0 563.89 272.14"><defs><style>.cls-1{fill:#ed1c24;}.cls-2{fill:#334744;}.cls-3{fill:#f1f2f2;}.cls-3,.cls-4,.cls-5,.cls-6{stroke:#808285;stroke-width:2px;}.cls-10,.cls-3,.cls-4,.cls-5,.cls-6{stroke-miterlimit:10;}.cls-4{fill:#939598;}.cls-5{fill:#e6e7e8;}.cls-6{fill:#d1d3d4;}.cls-7{fill:#231f20;}.cls-8{font-size:28.09px;fill:#6d6e71;font-family:PlantagenetCherokee, Plantagenet Cherokee;letter-spacing:-0.04em;}.cls-9{letter-spacing:0em;}.cls-10{fill:none;stroke:#bcbec0;stroke-width:0.75px;}.cls-11{fill:#808285;}</style></defs><title>logo</title><rect class="cls-1" width="563.89" height="272.14"/><path class="cls-2" d="M170,141s121.54,13.58,145.77,21.93c13.78,2.92,30.07,6.07,30.07,6.07s30.91-13.25,40.51-14.88c-10.86-5-89.95-37.59-112.86-41.73C214.27,113.63,170,141,170,141Z"/><path class="cls-3" d="M192.86,118.61v20.25s23.51,7.33,110.91,9.62c7.1-9.55-28.35-66-28.35-66Z"/><path class="cls-4" d="M301.29,53V48.34s-3.4,1.16-3.15-8.57c.49-5.63.24-7.59,4.9-7.35a49.48,49.48,0,0,0,7.1,0s3.18-.47,3.18,5.9v8.32l-2.69.49,0,4.77"/><path class="cls-4" d="M251.12,59.77V48.83a7.45,7.45,0,0,1,7.36-6.37,45.49,45.49,0,0,1,9.55,0s5.73-2.7,7.39,13.83"/><path class="cls-1" d="M355.43,122.79s4.16,16.89,7.59,18.85c-5.39,3.92-18.12,9.06-21.3,13.47-5.14-.49-33.79-8.32-38-5.63A188.88,188.88,0,0,1,299.61,129S345.88,119.61,355.43,122.79Z"/><path class="cls-4" d="M355.43,111v10.77s-12.73,6.86-21.79,6.12c-12.24,0-30.36,1.09-34,.06-5.63-1.28-11.26-2.5-12.49-4.71-2-2.2-18.61-9.79-38-6.86-19.34,1.22-56.31,2.2-56.31,2.2s-2.94-53.87,0-54.35c3.67-4.16,5.63-5.39,12.24-5.63s26-1.47,26-1.47,15.43,1.47,16.89,13.22,77.61,36.24,77.61,36.24"/><path class="cls-3" d="M322.38,50.54S233,60.34,214.65,67.19c-5.14,3.43-23.75,18.12-9.06,41.87,8.08,2,68.07-2.69,71-1.47,3.92.73,16.89,6.37,19.34,10,3.62.6,26.56,5.17,46.85-.95A51.16,51.16,0,0,0,355.43,111l-11.51,2.45,7.33-8.09"/><path class="cls-5" d="M322.38,50.54S291,51,290.3,87.76c2,13,1.47,23,38,26.93,13.71-2,30.36-7.35,30.61-28.89C358.37,76.49,359.59,47.11,322.38,50.54Z"/><path class="cls-6" d="M318.95,59.6s-18.61,8.08-12.24,33.3c6.86,8.08,7.87,11.38,28.65,8.57,6.86-3.92,14.94-10.76,11.75-20.44"/><path class="cls-4" d="M205.36,128.37c-.73,4.24-1,11.55,5.47,13.48,6.77-.91,7.26-.91,9.22-6.54-.24-6.86-1.09-12.34-7.52-11.19l-3.57.64A4.43,4.43,0,0,0,205.36,128.37Z"/><path class="cls-4" d="M228.22,125c-1.89,1.55-4.55,5-2.87,11.48a5,5,0,0,0,.19.58c1.88,4.77,3.49,7.7,9,6.74A4.51,4.51,0,0,0,238,140.9c1.7-4.7,3.22-11.31-2-15.82a4.35,4.35,0,0,0-2.71-1l-2.11-.07A4.46,4.46,0,0,0,228.22,125Z"/><path class="cls-4" d="M254,123.91c-1.38-.12-6.46.46-5.82,15.9a5,5,0,0,0,.34,1.54c1.72,4.59,2.69,5.56,10.12,3.76,4.84-2.49,6.68-9.65,2.69-18.69a4.55,4.55,0,0,0-4.18-2.69,17.74,17.74,0,0,0-2.35.18A3.46,3.46,0,0,1,254,123.91Z"/><path class="cls-4" d="M274.14,124.57s-6.7,5.93-2.84,18.2a6.07,6.07,0,0,0,4.36,4.07c4.4,1.07,10.23.21,10.23-11.74C283.93,128.24,283.69,121.63,274.14,124.57Z"/><path class="cls-7" d="M329,78.63s-10-12.31-25.23,5.54c-3.08,3.39-4.92,7.39-14.47,7.85-2.62-.62-6.31-1.6-4.46-5,.62-1.2,2.31-2.8,3.54,0,.15-3.81-4.59-4-6.68,0-1.63,5.88,4.84,10.34,6.84,10.8,5.39.92,13.08,4.62,32-3.39C325.2,92,327.5,89.1,329,88c1.24,1.69,3.7,4.62,14.16,8.93,7.85,1.85,17.64,4,25.39.92,4.62-2,6.88-3.69,7.75-8.77-.67-3.69-1.75-6.31-6.37-4.46a3.92,3.92,0,0,0-.31,3.23s.31-3.23,2.46-2c1.38,1.23,2.62,2.46,0,5.39-4.46,1.38-9.54,1.67-15.54-4.09-4-5.15-10.31-12.34-17.08-12.36C335.36,74.79,333.65,73.86,329,78.63Z"/><text class="cls-8" transform="translate(172.01 236.7)">M<tspan class="cls-9" x="24.39" y="0">ustache Express</tspan></text><line class="cls-10" x1="217.63" y1="188.87" x2="346.26" y2="188.87"/><path class="cls-11" d="M210,89.55c5-.91,10.12-1.62,15.19-2.26s10.16-1.19,15.25-1.71,10.18-.93,15.29-1.27,10.21-.63,15.34-.71c-5,.91-10.12,1.62-15.19,2.27S245.76,87,240.67,87.56s-10.18.93-15.29,1.27S215.17,89.46,210,89.55Z"/></svg>